<?xml version="1.0" encoding="UTF-8"?><svg xmlns="http://www.w3.org/2000/svg" xmlns:xlink="http://www.w3.org/1999/xlink" fill-opacity="1" color-rendering="auto" color-interpolation="auto" text-rendering="auto" stroke="black" stroke-linecap="square" width="310" stroke-miterlimit="10" shape-rendering="auto" stroke-opacity="1" fill="black" stroke-dasharray="none" font-weight="normal" stroke-width="1" height="205" font-family="'Dialog'" font-style="normal" stroke-linejoin="miter" font-size="12px" stroke-dashoffset="0" image-rendering="auto">
  <!--Generated by ySVG 2.5-->
  <defs id="genericDefs"/>
  <g>
    <defs id="defs1">
      <clipPath clipPathUnits="userSpaceOnUse" id="clipPath1">
        <path d="M0 0 L310 0 L310 205 L0 205 L0 0 Z"/>
      </clipPath>
      <clipPath clipPathUnits="userSpaceOnUse" id="clipPath2">
        <path d="M167 92 L477 92 L477 297 L167 297 L167 92 Z"/>
      </clipPath>
    </defs>
    <g fill="white" text-rendering="geometricPrecision" shape-rendering="geometricPrecision" transform="translate(-167,-92)" stroke="white">
      <rect x="167" width="310" height="205" y="92" clip-path="url(#clipPath2)" stroke="none"/>
    </g>
    <g fill="rgb(255,204,0)" text-rendering="geometricPrecision" shape-rendering="geometricPrecision" transform="matrix(1,0,0,1,-167,-92)" stroke="rgb(255,204,0)">
      <rect x="182" width="280" height="35" y="107" clip-path="url(#clipPath2)" stroke="none"/>
    </g>
    <g text-rendering="geometricPrecision" stroke-miterlimit="1.45" shape-rendering="geometricPrecision" transform="matrix(1,0,0,1,-167,-92)" stroke-linecap="butt">
      <rect fill="none" x="182" width="280" height="35" y="107" clip-path="url(#clipPath2)"/>
      <text x="221.7783" xml:space="preserve" y="129.2139" clip-path="url(#clipPath2)" font-family="sans-serif" stroke="none">One Pass Signature Packet A (tag=4)</text>
    </g>
    <g fill="rgb(204,255,204)" text-rendering="geometricPrecision" shape-rendering="geometricPrecision" transform="matrix(1,0,0,1,-167,-92)" stroke="rgb(204,255,204)">
      <rect x="182" width="280" height="35" y="142" clip-path="url(#clipPath2)" stroke="none"/>
    </g>
    <g text-rendering="geometricPrecision" stroke-miterlimit="1.45" shape-rendering="geometricPrecision" transform="matrix(1,0,0,1,-167,-92)" stroke-linecap="butt">
      <rect fill="none" x="182" width="280" height="35" y="142" clip-path="url(#clipPath2)"/>
      <text x="221.7783" xml:space="preserve" y="164.2139" clip-path="url(#clipPath2)" font-family="sans-serif" stroke="none">One Pass Signature Packet B (tag=4)</text>
    </g>
    <g fill="yellow" text-rendering="geometricPrecision" shape-rendering="geometricPrecision" transform="matrix(1,0,0,1,-167,-92)" stroke="yellow">
      <rect x="182" width="280" height="35" y="177" clip-path="url(#clipPath2)" stroke="none"/>
    </g>
    <g text-rendering="geometricPrecision" stroke-miterlimit="1.45" shape-rendering="geometricPrecision" transform="matrix(1,0,0,1,-167,-92)" stroke-linecap="butt">
      <rect fill="none" x="182" width="280" height="35" y="177" clip-path="url(#clipPath2)"/>
      <text x="247.126" xml:space="preserve" y="199.2139" clip-path="url(#clipPath2)" font-family="sans-serif" stroke="none">Literal Data Packet (tag=11)</text>
    </g>
    <g fill="rgb(204,255,204)" text-rendering="geometricPrecision" shape-rendering="geometricPrecision" transform="matrix(1,0,0,1,-167,-92)" stroke="rgb(204,255,204)">
      <rect x="182" width="280" height="35" y="212" clip-path="url(#clipPath2)" stroke="none"/>
    </g>
    <g text-rendering="geometricPrecision" stroke-miterlimit="1.45" shape-rendering="geometricPrecision" transform="matrix(1,0,0,1,-167,-92)" stroke-linecap="butt">
      <rect fill="none" x="182" width="280" height="35" y="212" clip-path="url(#clipPath2)"/>
      <text x="249.792" xml:space="preserve" y="234.2139" clip-path="url(#clipPath2)" font-family="sans-serif" stroke="none">Signature Packet B (tag=2)</text>
    </g>
    <g fill="rgb(255,204,0)" text-rendering="geometricPrecision" shape-rendering="geometricPrecision" transform="matrix(1,0,0,1,-167,-92)" stroke="rgb(255,204,0)">
      <rect x="182" width="280" height="35" y="247" clip-path="url(#clipPath2)" stroke="none"/>
    </g>
    <g text-rendering="geometricPrecision" stroke-miterlimit="1.45" shape-rendering="geometricPrecision" transform="matrix(1,0,0,1,-167,-92)" stroke-linecap="butt">
      <rect fill="none" x="182" width="280" height="35" y="247" clip-path="url(#clipPath2)"/>
      <text x="249.792" xml:space="preserve" y="269.2139" clip-path="url(#clipPath2)" font-family="sans-serif" stroke="none">Signature Packet A (tag=2)</text>
    </g>
  </g>
</svg>
