<?xml version="1.0" encoding="UTF-8"?><svg xmlns="http://www.w3.org/2000/svg" xmlns:xlink="http://www.w3.org/1999/xlink" fill-opacity="1" color-rendering="auto" color-interpolation="auto" text-rendering="auto" stroke="black" stroke-linecap="square" width="698" stroke-miterlimit="10" shape-rendering="auto" stroke-opacity="1" fill="black" stroke-dasharray="none" font-weight="normal" stroke-width="1" height="170" font-family="'Dialog'" font-style="normal" stroke-linejoin="miter" font-size="12px" stroke-dashoffset="0" image-rendering="auto">
  <!--Generated by ySVG 2.5-->
  <defs id="genericDefs"/>
  <g>
    <defs id="defs1">
      <clipPath clipPathUnits="userSpaceOnUse" id="clipPath1">
        <path d="M0 0 L698 0 L698 170 L0 170 L0 0 Z"/>
      </clipPath>
      <clipPath clipPathUnits="userSpaceOnUse" id="clipPath2">
        <path d="M26 -18 L724 -18 L724 152 L26 152 L26 -18 Z"/>
      </clipPath>
    </defs>
    <g fill="white" text-rendering="geometricPrecision" shape-rendering="geometricPrecision" transform="translate(-26,18)" stroke="white">
      <rect x="26" width="698" height="170" y="-18" clip-path="url(#clipPath2)" stroke="none"/>
    </g>
    <g fill="rgb(153,153,255)" text-rendering="geometricPrecision" shape-rendering="geometricPrecision" transform="matrix(1,0,0,1,-26,18)" stroke="rgb(153,153,255)">
      <rect x="41" width="158" height="30" y="52" clip-path="url(#clipPath2)" stroke="none"/>
    </g>
    <g text-rendering="geometricPrecision" stroke-miterlimit="1.45" shape-rendering="geometricPrecision" transform="matrix(1,0,0,1,-26,18)" stroke-linecap="butt">
      <rect fill="none" x="41" width="158" height="30" y="52" clip-path="url(#clipPath2)"/>
      <text x="78.1436" xml:space="preserve" y="71.7139" clip-path="url(#clipPath2)" font-family="sans-serif" stroke="none">off (=519) bytes</text>
    </g>
    <g fill="rgb(255,204,0)" text-rendering="geometricPrecision" shape-rendering="geometricPrecision" transform="matrix(1,0,0,1,-26,18)" stroke="rgb(255,204,0)">
      <rect x="199" width="30" height="30" y="52" clip-path="url(#clipPath2)" stroke="none"/>
    </g>
    <g text-rendering="geometricPrecision" stroke-miterlimit="1.45" shape-rendering="geometricPrecision" transform="matrix(1,0,0,1,-26,18)" stroke-linecap="butt">
      <rect fill="none" x="199" width="30" height="30" y="52" clip-path="url(#clipPath2)"/>
      <text x="206.6611" xml:space="preserve" y="71.7139" clip-path="url(#clipPath2)" font-family="sans-serif" stroke="none">B4</text>
    </g>
    <g fill="rgb(255,204,0)" text-rendering="geometricPrecision" shape-rendering="geometricPrecision" transform="matrix(1,0,0,1,-26,18)" stroke="rgb(255,204,0)">
      <rect x="229" width="30" height="30" y="52" clip-path="url(#clipPath2)" stroke="none"/>
    </g>
    <g text-rendering="geometricPrecision" stroke-miterlimit="1.45" shape-rendering="geometricPrecision" transform="matrix(1,0,0,1,-26,18)" stroke-linecap="butt">
      <rect fill="none" x="229" width="30" height="30" y="52" clip-path="url(#clipPath2)"/>
    </g>
    <g fill="rgb(153,255,153)" text-rendering="geometricPrecision" shape-rendering="geometricPrecision" transform="matrix(1,0,0,1,-26,18)" stroke="rgb(153,255,153)">
      <rect x="259" width="30" height="30" y="52" clip-path="url(#clipPath2)" stroke="none"/>
    </g>
    <g text-rendering="geometricPrecision" stroke-miterlimit="1.45" shape-rendering="geometricPrecision" transform="matrix(1,0,0,1,-26,18)" stroke-linecap="butt">
      <rect fill="none" x="259" width="30" height="30" y="52" clip-path="url(#clipPath2)"/>
    </g>
    <g fill="rgb(153,255,153)" text-rendering="geometricPrecision" shape-rendering="geometricPrecision" transform="matrix(1,0,0,1,-26,18)" stroke="rgb(153,255,153)">
      <rect x="289" width="30" height="30" y="52" clip-path="url(#clipPath2)" stroke="none"/>
    </g>
    <g text-rendering="geometricPrecision" stroke-miterlimit="1.45" shape-rendering="geometricPrecision" transform="matrix(1,0,0,1,-26,18)" stroke-linecap="butt">
      <rect fill="none" x="289" width="30" height="30" y="52" clip-path="url(#clipPath2)"/>
    </g>
    <g fill="rgb(153,255,153)" text-rendering="geometricPrecision" shape-rendering="geometricPrecision" transform="matrix(1,0,0,1,-26,18)" stroke="rgb(153,255,153)">
      <rect x="319" width="30" height="30" y="52" clip-path="url(#clipPath2)" stroke="none"/>
    </g>
    <g text-rendering="geometricPrecision" stroke-miterlimit="1.45" shape-rendering="geometricPrecision" transform="matrix(1,0,0,1,-26,18)" stroke-linecap="butt">
      <rect fill="none" x="319" width="30" height="30" y="52" clip-path="url(#clipPath2)"/>
    </g>
    <g fill="rgb(153,255,153)" text-rendering="geometricPrecision" shape-rendering="geometricPrecision" transform="matrix(1,0,0,1,-26,18)" stroke="rgb(153,255,153)">
      <rect x="349" width="30" height="30" y="52" clip-path="url(#clipPath2)" stroke="none"/>
    </g>
    <g text-rendering="geometricPrecision" stroke-miterlimit="1.45" shape-rendering="geometricPrecision" transform="matrix(1,0,0,1,-26,18)" stroke-linecap="butt">
      <rect fill="none" x="349" width="30" height="30" y="52" clip-path="url(#clipPath2)"/>
    </g>
    <g fill="rgb(153,255,153)" text-rendering="geometricPrecision" shape-rendering="geometricPrecision" transform="matrix(1,0,0,1,-26,18)" stroke="rgb(153,255,153)">
      <rect x="379" width="30" height="30" y="52" clip-path="url(#clipPath2)" stroke="none"/>
    </g>
    <g text-rendering="geometricPrecision" stroke-miterlimit="1.45" shape-rendering="geometricPrecision" transform="matrix(1,0,0,1,-26,18)" stroke-linecap="butt">
      <rect fill="none" x="379" width="30" height="30" y="52" clip-path="url(#clipPath2)"/>
    </g>
    <g fill="rgb(153,255,153)" text-rendering="geometricPrecision" shape-rendering="geometricPrecision" transform="matrix(1,0,0,1,-26,18)" stroke="rgb(153,255,153)">
      <rect x="409" width="30" height="30" y="52" clip-path="url(#clipPath2)" stroke="none"/>
    </g>
    <g text-rendering="geometricPrecision" stroke-miterlimit="1.45" shape-rendering="geometricPrecision" transform="matrix(1,0,0,1,-26,18)" stroke-linecap="butt">
      <rect fill="none" x="409" width="30" height="30" y="52" clip-path="url(#clipPath2)"/>
    </g>
    <g fill="rgb(153,255,153)" text-rendering="geometricPrecision" shape-rendering="geometricPrecision" transform="matrix(1,0,0,1,-26,18)" stroke="rgb(153,255,153)">
      <rect x="439" width="30" height="30" y="52" clip-path="url(#clipPath2)" stroke="none"/>
    </g>
    <g text-rendering="geometricPrecision" stroke-miterlimit="1.45" shape-rendering="geometricPrecision" transform="matrix(1,0,0,1,-26,18)" stroke-linecap="butt">
      <rect fill="none" x="439" width="30" height="30" y="52" clip-path="url(#clipPath2)"/>
    </g>
    <g fill="rgb(153,255,153)" text-rendering="geometricPrecision" shape-rendering="geometricPrecision" transform="matrix(1,0,0,1,-26,18)" stroke="rgb(153,255,153)">
      <rect x="469" width="30" height="30" y="52" clip-path="url(#clipPath2)" stroke="none"/>
    </g>
    <g text-rendering="geometricPrecision" stroke-miterlimit="1.45" shape-rendering="geometricPrecision" transform="matrix(1,0,0,1,-26,18)" stroke-linecap="butt">
      <rect fill="none" x="469" width="30" height="30" y="52" clip-path="url(#clipPath2)"/>
    </g>
    <g fill="rgb(153,255,153)" text-rendering="geometricPrecision" shape-rendering="geometricPrecision" transform="matrix(1,0,0,1,-26,18)" stroke="rgb(153,255,153)">
      <rect x="499" width="30" height="30" y="52" clip-path="url(#clipPath2)" stroke="none"/>
    </g>
    <g text-rendering="geometricPrecision" stroke-miterlimit="1.45" shape-rendering="geometricPrecision" transform="matrix(1,0,0,1,-26,18)" stroke-linecap="butt">
      <rect fill="none" x="499" width="30" height="30" y="52" clip-path="url(#clipPath2)"/>
    </g>
    <g fill="rgb(153,255,153)" text-rendering="geometricPrecision" shape-rendering="geometricPrecision" transform="matrix(1,0,0,1,-26,18)" stroke="rgb(153,255,153)">
      <rect x="529" width="30" height="30" y="52" clip-path="url(#clipPath2)" stroke="none"/>
    </g>
    <g text-rendering="geometricPrecision" stroke-miterlimit="1.45" shape-rendering="geometricPrecision" transform="matrix(1,0,0,1,-26,18)" stroke-linecap="butt">
      <rect fill="none" x="529" width="30" height="30" y="52" clip-path="url(#clipPath2)"/>
    </g>
    <g fill="rgb(153,255,153)" text-rendering="geometricPrecision" shape-rendering="geometricPrecision" transform="matrix(1,0,0,1,-26,18)" stroke="rgb(153,255,153)">
      <rect x="559" width="30" height="30" y="52" clip-path="url(#clipPath2)" stroke="none"/>
    </g>
    <g text-rendering="geometricPrecision" stroke-miterlimit="1.45" shape-rendering="geometricPrecision" transform="matrix(1,0,0,1,-26,18)" stroke-linecap="butt">
      <rect fill="none" x="559" width="30" height="30" y="52" clip-path="url(#clipPath2)"/>
    </g>
    <g fill="rgb(153,255,153)" text-rendering="geometricPrecision" shape-rendering="geometricPrecision" transform="matrix(1,0,0,1,-26,18)" stroke="rgb(153,255,153)">
      <rect x="589" width="30" height="30" y="52" clip-path="url(#clipPath2)" stroke="none"/>
    </g>
    <g text-rendering="geometricPrecision" stroke-miterlimit="1.45" shape-rendering="geometricPrecision" transform="matrix(1,0,0,1,-26,18)" stroke-linecap="butt">
      <rect fill="none" x="589" width="30" height="30" y="52" clip-path="url(#clipPath2)"/>
    </g>
    <g fill="rgb(153,255,153)" text-rendering="geometricPrecision" shape-rendering="geometricPrecision" transform="matrix(1,0,0,1,-26,18)" stroke="rgb(153,255,153)">
      <rect x="619" width="30" height="30" y="52" clip-path="url(#clipPath2)" stroke="none"/>
    </g>
    <g text-rendering="geometricPrecision" stroke-miterlimit="1.45" shape-rendering="geometricPrecision" transform="matrix(1,0,0,1,-26,18)" stroke-linecap="butt">
      <rect fill="none" x="619" width="30" height="30" y="52" clip-path="url(#clipPath2)"/>
    </g>
    <g fill="rgb(153,255,153)" text-rendering="geometricPrecision" shape-rendering="geometricPrecision" transform="matrix(1,0,0,1,-26,18)" stroke="rgb(153,255,153)">
      <rect x="649" width="30" height="30" y="52" clip-path="url(#clipPath2)" stroke="none"/>
    </g>
    <g text-rendering="geometricPrecision" stroke-miterlimit="1.45" shape-rendering="geometricPrecision" transform="matrix(1,0,0,1,-26,18)" stroke-linecap="butt">
      <rect fill="none" x="649" width="30" height="30" y="52" clip-path="url(#clipPath2)"/>
    </g>
    <g fill="rgb(153,255,153)" text-rendering="geometricPrecision" shape-rendering="geometricPrecision" transform="matrix(1,0,0,1,-26,18)" stroke="rgb(153,255,153)">
      <rect x="679" width="30" height="30" y="52" clip-path="url(#clipPath2)" stroke="none"/>
    </g>
    <g text-rendering="geometricPrecision" stroke-miterlimit="1.45" shape-rendering="geometricPrecision" transform="matrix(1,0,0,1,-26,18)" stroke-linecap="butt">
      <rect fill="none" x="679" width="30" height="30" y="52" clip-path="url(#clipPath2)"/>
      <text x="205.9961" xml:space="preserve" y="118.8956" clip-path="url(#clipPath2)" font-family="sans-serif" stroke="none">ctb</text>
    </g>
    <g fill="rgb(255,204,0)" text-rendering="geometricPrecision" shape-rendering="geometricPrecision" transform="matrix(1,0,0,1,-26,18)" stroke="rgb(255,204,0)">
      <rect x="172.3375" width="116.6625" height="42.8" y="-2.0722" clip-path="url(#clipPath2)" stroke="none"/>
    </g>
    <g text-rendering="geometricPrecision" stroke-miterlimit="1.45" shape-rendering="geometricPrecision" font-family="sans-serif" transform="matrix(1,0,0,1,-26,18)" stroke-linecap="butt">
      <text x="210.9901" xml:space="preserve" y="15.9923" clip-path="url(#clipPath2)" stroke="none">Header</text>
      <text x="174.6356" xml:space="preserve" y="30.6934" clip-path="url(#clipPath2)" stroke="none">length: hlen (2 bytes)</text>
    </g>
    <g fill="rgb(153,255,153)" text-rendering="geometricPrecision" shape-rendering="geometricPrecision" transform="matrix(1,0,0,1,-26,18)" stroke="rgb(153,255,153)">
      <rect x="259" width="450" height="42.8" y="93.2722" clip-path="url(#clipPath2)" stroke="none"/>
    </g>
    <g text-rendering="geometricPrecision" stroke-miterlimit="1.45" shape-rendering="geometricPrecision" font-family="sans-serif" transform="matrix(1,0,0,1,-26,18)" stroke-linecap="butt">
      <text x="436.6416" xml:space="preserve" y="112.0355" clip-path="url(#clipPath2)" stroke="none">Payload (or body)</text>
      <text x="424.6299" xml:space="preserve" y="126.7366" clip-path="url(#clipPath2)" stroke="none">length: plen (15 bytes)</text>
      <path fill="none" d="M214 99.1818 L214 90" clip-path="url(#clipPath2)"/>
      <path d="M214 82 L209 94 L214 91 L219 94 Z" clip-path="url(#clipPath2)" stroke="none"/>
    </g>
  </g>
</svg>
