<?xml version="1.0" encoding="UTF-8"?><svg xmlns="http://www.w3.org/2000/svg" xmlns:xlink="http://www.w3.org/1999/xlink" fill-opacity="1" color-rendering="auto" color-interpolation="auto" text-rendering="auto" stroke="black" stroke-linecap="square" width="299" stroke-miterlimit="10" shape-rendering="auto" stroke-opacity="1" fill="black" stroke-dasharray="none" font-weight="normal" stroke-width="1" height="602" font-family="'Dialog'" font-style="normal" stroke-linejoin="miter" font-size="12px" stroke-dashoffset="0" image-rendering="auto">
  <!--Generated by ySVG 2.5-->
  <defs id="genericDefs"/>
  <g>
    <defs id="defs1">
      <clipPath clipPathUnits="userSpaceOnUse" id="clipPath1">
        <path d="M0 0 L299 0 L299 602 L0 602 L0 0 Z"/>
      </clipPath>
      <clipPath clipPathUnits="userSpaceOnUse" id="clipPath2">
        <path d="M211 78 L510 78 L510 680 L211 680 L211 78 Z"/>
      </clipPath>
    </defs>
    <g fill="white" text-rendering="geometricPrecision" shape-rendering="geometricPrecision" transform="translate(-211,-78)" stroke="white">
      <rect x="211" width="299" height="602" y="78" clip-path="url(#clipPath2)" stroke="none"/>
    </g>
    <g fill="rgb(153,153,153)" text-rendering="geometricPrecision" shape-rendering="geometricPrecision" transform="matrix(1,0,0,1,-211,-78)" stroke="rgb(153,153,153)">
      <rect x="227" width="268" height="30" y="93" clip-path="url(#clipPath2)" stroke="none"/>
    </g>
    <g text-rendering="geometricPrecision" stroke-miterlimit="1.45" shape-rendering="geometricPrecision" transform="matrix(1,0,0,1,-211,-78)" stroke-linecap="butt">
      <rect fill="none" x="227" width="268" height="30" y="93" clip-path="url(#clipPath2)"/>
      <text x="312.3115" xml:space="preserve" y="112.7139" clip-path="url(#clipPath2)" font-family="sans-serif" stroke="none">Public-Key Packet</text>
    </g>
    <g fill="rgb(153,153,153)" text-rendering="geometricPrecision" shape-rendering="geometricPrecision" transform="matrix(1,0,0,1,-211,-78)" stroke="rgb(153,153,153)">
      <rect x="227" width="268" height="30" y="123" clip-path="url(#clipPath2)" stroke="none"/>
    </g>
    <g text-rendering="geometricPrecision" stroke-miterlimit="1.45" shape-rendering="geometricPrecision" transform="matrix(1,0,0,1,-211,-78)" stroke-linecap="butt">
      <rect fill="none" x="227" width="268" height="30" y="123" clip-path="url(#clipPath2)"/>
      <text x="321.3203" xml:space="preserve" y="142.7139" clip-path="url(#clipPath2)" font-family="sans-serif" stroke="none">User ID packet</text>
    </g>
    <g fill="rgb(153,153,153)" text-rendering="geometricPrecision" shape-rendering="geometricPrecision" transform="matrix(1,0,0,1,-211,-78)" stroke="rgb(153,153,153)">
      <rect x="227" width="268" height="157.1808" y="153" clip-path="url(#clipPath2)" stroke="none"/>
    </g>
    <g text-rendering="geometricPrecision" stroke-miterlimit="1.45" shape-rendering="geometricPrecision" transform="matrix(1,0,0,1,-211,-78)" stroke-linecap="butt">
      <rect fill="none" x="227" width="268" height="157.1808" y="153" clip-path="url(#clipPath2)"/>
    </g>
    <g stroke-linecap="butt" transform="matrix(1,0,0,1,-211,-78)" fill="blue" text-rendering="geometricPrecision" font-family="sans-serif" shape-rendering="geometricPrecision" stroke="blue" font-weight="bold" stroke-miterlimit="1.45">
      <text x="312.3145" xml:space="preserve" y="171.2446" clip-path="url(#clipPath2)" stroke="none">Signature Packet</text>
      <text x="267.9707" xml:space="preserve" y="185.9458" clip-path="url(#clipPath2)" stroke="none">Generic certification of a User ID</text>
      <text x="296.9805" xml:space="preserve" y="200.647" clip-path="url(#clipPath2)" stroke="none">and Public-Key packet</text>
      <text x="308.6406" xml:space="preserve" y="215.3482" clip-path="url(#clipPath2)" stroke="none">[tag=2, type=0x10]</text>
    </g>
    <g fill="rgb(255,204,153)" text-rendering="geometricPrecision" shape-rendering="geometricPrecision" transform="matrix(1,0,0,1,-211,-78)" stroke="rgb(255,204,153)">
      <rect x="255.4784" width="211.0432" height="30" y="232.6131" clip-path="url(#clipPath2)" stroke="none"/>
    </g>
    <g text-rendering="geometricPrecision" stroke-miterlimit="1.45" shape-rendering="geometricPrecision" transform="matrix(1,0,0,1,-211,-78)" stroke-linecap="butt">
      <rect fill="none" x="255.4784" width="211.0432" height="30" y="232.6131" clip-path="url(#clipPath2)"/>
      <text x="295.9697" xml:space="preserve" y="252.3269" clip-path="url(#clipPath2)" font-family="sans-serif" stroke="none">Signature Creation Time</text>
    </g>
    <g fill="rgb(255,204,153)" text-rendering="geometricPrecision" shape-rendering="geometricPrecision" transform="matrix(1,0,0,1,-211,-78)" stroke="rgb(255,204,153)">
      <rect x="255.4784" width="211.0432" height="30" y="268.3152" clip-path="url(#clipPath2)" stroke="none"/>
    </g>
    <g text-rendering="geometricPrecision" stroke-miterlimit="1.45" shape-rendering="geometricPrecision" transform="matrix(1,0,0,1,-211,-78)" stroke-linecap="butt">
      <rect fill="none" x="255.4784" width="211.0432" height="30" y="268.3152" clip-path="url(#clipPath2)"/>
      <text x="344.6611" xml:space="preserve" y="288.0291" clip-path="url(#clipPath2)" font-family="sans-serif" stroke="none">Issuer</text>
    </g>
    <g fill="rgb(255,204,204)" text-rendering="geometricPrecision" shape-rendering="geometricPrecision" transform="matrix(1,0,0,1,-211,-78)" stroke="rgb(255,204,204)">
      <rect x="227" width="268" height="30" y="310.1808" clip-path="url(#clipPath2)" stroke="none"/>
    </g>
    <g text-rendering="geometricPrecision" stroke-miterlimit="1.45" shape-rendering="geometricPrecision" transform="matrix(1,0,0,1,-211,-78)" stroke-linecap="butt">
      <rect fill="none" x="227" width="268" height="30" y="310.1808" clip-path="url(#clipPath2)"/>
      <text x="302.6377" xml:space="preserve" y="329.8947" clip-path="url(#clipPath2)" font-family="sans-serif" stroke="none">Public-Subkey Packet</text>
    </g>
    <g fill="rgb(255,204,204)" text-rendering="geometricPrecision" shape-rendering="geometricPrecision" transform="matrix(1,0,0,1,-211,-78)" stroke="rgb(255,204,204)">
      <rect x="227" width="268" height="147.3248" y="340.1808" clip-path="url(#clipPath2)" stroke="none"/>
    </g>
    <g text-rendering="geometricPrecision" stroke-miterlimit="1.45" shape-rendering="geometricPrecision" transform="matrix(1,0,0,1,-211,-78)" stroke-linecap="butt">
      <rect fill="none" x="227" width="268" height="147.3248" y="340.1808" clip-path="url(#clipPath2)"/>
    </g>
    <g stroke-linecap="butt" transform="matrix(1,0,0,1,-211,-78)" fill="red" text-rendering="geometricPrecision" font-family="sans-serif" shape-rendering="geometricPrecision" stroke="red" font-weight="bold" stroke-miterlimit="1.45">
      <text x="312.3145" xml:space="preserve" y="358.8828" clip-path="url(#clipPath2)" stroke="none">Signature Packet</text>
      <text x="286.3252" xml:space="preserve" y="373.584" clip-path="url(#clipPath2)" stroke="none">Subkey Binding Signature</text>
      <text x="308.6406" xml:space="preserve" y="388.2852" clip-path="url(#clipPath2)" stroke="none">[tag=2, type=0x18]</text>
    </g>
    <g fill="rgb(255,204,153)" text-rendering="geometricPrecision" shape-rendering="geometricPrecision" transform="matrix(1,0,0,1,-211,-78)" stroke="rgb(255,204,153)">
      <rect x="255.4784" width="211.0432" height="30" y="408.7632" clip-path="url(#clipPath2)" stroke="none"/>
    </g>
    <g text-rendering="geometricPrecision" stroke-miterlimit="1.45" shape-rendering="geometricPrecision" transform="matrix(1,0,0,1,-211,-78)" stroke-linecap="butt">
      <rect fill="none" x="255.4784" width="211.0432" height="30" y="408.7632" clip-path="url(#clipPath2)"/>
      <text x="295.9697" xml:space="preserve" y="428.4771" clip-path="url(#clipPath2)" font-family="sans-serif" stroke="none">Signature Creation Time</text>
    </g>
    <g fill="rgb(255,204,153)" text-rendering="geometricPrecision" shape-rendering="geometricPrecision" transform="matrix(1,0,0,1,-211,-78)" stroke="rgb(255,204,153)">
      <rect x="255.4784" width="211.0432" height="30" y="444.4653" clip-path="url(#clipPath2)" stroke="none"/>
    </g>
    <g text-rendering="geometricPrecision" stroke-miterlimit="1.45" shape-rendering="geometricPrecision" transform="matrix(1,0,0,1,-211,-78)" stroke-linecap="butt">
      <rect fill="none" x="255.4784" width="211.0432" height="30" y="444.4653" clip-path="url(#clipPath2)"/>
      <text x="344.6611" xml:space="preserve" y="464.1792" clip-path="url(#clipPath2)" font-family="sans-serif" stroke="none">Issuer</text>
    </g>
    <g fill="rgb(153,255,153)" text-rendering="geometricPrecision" shape-rendering="geometricPrecision" transform="matrix(1,0,0,1,-211,-78)" stroke="rgb(153,255,153)">
      <rect x="227" width="268" height="30" y="487.5056" clip-path="url(#clipPath2)" stroke="none"/>
    </g>
    <g text-rendering="geometricPrecision" stroke-miterlimit="1.45" shape-rendering="geometricPrecision" transform="matrix(1,0,0,1,-211,-78)" stroke-linecap="butt">
      <rect fill="none" x="227" width="268" height="30" y="487.5056" clip-path="url(#clipPath2)"/>
      <text x="302.6377" xml:space="preserve" y="507.2195" clip-path="url(#clipPath2)" font-family="sans-serif" stroke="none">Public-Subkey Packet</text>
    </g>
    <g fill="rgb(153,255,153)" text-rendering="geometricPrecision" shape-rendering="geometricPrecision" transform="matrix(1,0,0,1,-211,-78)" stroke="rgb(153,255,153)">
      <rect x="227" width="268" height="147.3248" y="517.5056" clip-path="url(#clipPath2)" stroke="none"/>
    </g>
    <g text-rendering="geometricPrecision" stroke-miterlimit="1.45" shape-rendering="geometricPrecision" transform="matrix(1,0,0,1,-211,-78)" stroke-linecap="butt">
      <rect fill="none" x="227" width="268" height="147.3248" y="517.5056" clip-path="url(#clipPath2)"/>
    </g>
    <g stroke-linecap="butt" transform="matrix(1,0,0,1,-211,-78)" fill="red" text-rendering="geometricPrecision" font-family="sans-serif" shape-rendering="geometricPrecision" stroke="red" font-weight="bold" stroke-miterlimit="1.45">
      <text x="312.3145" xml:space="preserve" y="536.2076" clip-path="url(#clipPath2)" stroke="none">Signature Packet</text>
      <text x="286.3252" xml:space="preserve" y="550.9088" clip-path="url(#clipPath2)" stroke="none">Subkey Binding Signature</text>
      <text x="308.6406" xml:space="preserve" y="565.61" clip-path="url(#clipPath2)" stroke="none">[tag=2, type=0x18]</text>
    </g>
    <g fill="rgb(255,204,153)" text-rendering="geometricPrecision" shape-rendering="geometricPrecision" transform="matrix(1,0,0,1,-211,-78)" stroke="rgb(255,204,153)">
      <rect x="255.4784" width="211.0432" height="30" y="586.088" clip-path="url(#clipPath2)" stroke="none"/>
    </g>
    <g text-rendering="geometricPrecision" stroke-miterlimit="1.45" shape-rendering="geometricPrecision" transform="matrix(1,0,0,1,-211,-78)" stroke-linecap="butt">
      <rect fill="none" x="255.4784" width="211.0432" height="30" y="586.088" clip-path="url(#clipPath2)"/>
      <text x="295.9697" xml:space="preserve" y="605.8019" clip-path="url(#clipPath2)" font-family="sans-serif" stroke="none">Signature Creation Time</text>
    </g>
    <g fill="rgb(255,204,153)" text-rendering="geometricPrecision" shape-rendering="geometricPrecision" transform="matrix(1,0,0,1,-211,-78)" stroke="rgb(255,204,153)">
      <rect x="255.4784" width="211.0432" height="30" y="621.7901" clip-path="url(#clipPath2)" stroke="none"/>
    </g>
    <g text-rendering="geometricPrecision" stroke-miterlimit="1.45" shape-rendering="geometricPrecision" transform="matrix(1,0,0,1,-211,-78)" stroke-linecap="butt">
      <rect fill="none" x="255.4784" width="211.0432" height="30" y="621.7901" clip-path="url(#clipPath2)"/>
      <text x="344.6611" xml:space="preserve" y="641.504" clip-path="url(#clipPath2)" font-family="sans-serif" stroke="none">Issuer</text>
    </g>
  </g>
</svg>
