<?xml version="1.0" encoding="UTF-8"?><svg xmlns="http://www.w3.org/2000/svg" xmlns:xlink="http://www.w3.org/1999/xlink" fill-opacity="1" color-rendering="auto" color-interpolation="auto" text-rendering="auto" stroke="black" stroke-linecap="square" width="443" stroke-miterlimit="10" shape-rendering="auto" stroke-opacity="1" fill="black" stroke-dasharray="none" font-weight="normal" stroke-width="1" height="537" font-family="'Dialog'" font-style="normal" stroke-linejoin="miter" font-size="12px" stroke-dashoffset="0" image-rendering="auto">
  <!--Generated by ySVG 2.5-->
  <defs id="genericDefs"/>
  <g>
    <defs id="defs1">
      <clipPath clipPathUnits="userSpaceOnUse" id="clipPath1">
        <path d="M0 0 L443 0 L443 537 L0 537 L0 0 Z"/>
      </clipPath>
      <clipPath clipPathUnits="userSpaceOnUse" id="clipPath2">
        <path d="M58 -17 L501 -17 L501 520 L58 520 L58 -17 Z"/>
      </clipPath>
    </defs>
    <g fill="white" text-rendering="geometricPrecision" shape-rendering="geometricPrecision" transform="translate(-58,17)" stroke="white">
      <rect x="58" width="443" height="537" y="-17" clip-path="url(#clipPath2)" stroke="none"/>
    </g>
    <g fill="rgb(255,204,0)" text-rendering="geometricPrecision" shape-rendering="geometricPrecision" transform="matrix(1,0,0,1,-58,17)" stroke="rgb(255,204,0)">
      <rect x="82" width="30" height="30" y="87.3504" clip-path="url(#clipPath2)" stroke="none"/>
    </g>
    <g text-rendering="geometricPrecision" stroke-miterlimit="1.45" shape-rendering="geometricPrecision" transform="matrix(1,0,0,1,-58,17)" stroke-linecap="butt">
      <rect fill="none" x="82" width="30" height="30" y="87.3504" clip-path="url(#clipPath2)"/>
      <text x="93.6631" xml:space="preserve" y="107.0643" clip-path="url(#clipPath2)" font-family="sans-serif" stroke="none">1</text>
    </g>
    <g fill="rgb(153,255,153)" text-rendering="geometricPrecision" shape-rendering="geometricPrecision" transform="matrix(1,0,0,1,-58,17)" stroke="rgb(153,255,153)">
      <rect x="112" width="30" height="30" y="87.3504" clip-path="url(#clipPath2)" stroke="none"/>
    </g>
    <g text-rendering="geometricPrecision" stroke-miterlimit="1.45" shape-rendering="geometricPrecision" transform="matrix(1,0,0,1,-58,17)" stroke-linecap="butt">
      <rect fill="none" x="112" width="30" height="30" y="87.3504" clip-path="url(#clipPath2)"/>
      <text x="123.6631" xml:space="preserve" y="107.0643" clip-path="url(#clipPath2)" font-family="sans-serif" stroke="none">0</text>
    </g>
    <g fill="rgb(153,153,255)" text-rendering="geometricPrecision" shape-rendering="geometricPrecision" transform="matrix(1,0,0,1,-58,17)" stroke="rgb(153,153,255)">
      <rect x="142" width="30" height="30" y="87.3504" clip-path="url(#clipPath2)" stroke="none"/>
    </g>
    <g text-rendering="geometricPrecision" stroke-miterlimit="1.45" shape-rendering="geometricPrecision" transform="matrix(1,0,0,1,-58,17)" stroke-linecap="butt">
      <rect fill="none" x="142" width="30" height="30" y="87.3504" clip-path="url(#clipPath2)"/>
    </g>
    <g fill="rgb(153,153,255)" text-rendering="geometricPrecision" shape-rendering="geometricPrecision" transform="matrix(1,0,0,1,-58,17)" stroke="rgb(153,153,255)">
      <rect x="172" width="30" height="30" y="87.3504" clip-path="url(#clipPath2)" stroke="none"/>
    </g>
    <g text-rendering="geometricPrecision" stroke-miterlimit="1.45" shape-rendering="geometricPrecision" transform="matrix(1,0,0,1,-58,17)" stroke-linecap="butt">
      <rect fill="none" x="172" width="30" height="30" y="87.3504" clip-path="url(#clipPath2)"/>
    </g>
    <g fill="rgb(153,153,255)" text-rendering="geometricPrecision" shape-rendering="geometricPrecision" transform="matrix(1,0,0,1,-58,17)" stroke="rgb(153,153,255)">
      <rect x="202" width="30" height="30" y="87.3504" clip-path="url(#clipPath2)" stroke="none"/>
    </g>
    <g text-rendering="geometricPrecision" stroke-miterlimit="1.45" shape-rendering="geometricPrecision" transform="matrix(1,0,0,1,-58,17)" stroke-linecap="butt">
      <rect fill="none" x="202" width="30" height="30" y="87.3504" clip-path="url(#clipPath2)"/>
    </g>
    <g fill="rgb(153,153,255)" text-rendering="geometricPrecision" shape-rendering="geometricPrecision" transform="matrix(1,0,0,1,-58,17)" stroke="rgb(153,153,255)">
      <rect x="232" width="30" height="30" y="87.3504" clip-path="url(#clipPath2)" stroke="none"/>
    </g>
    <g text-rendering="geometricPrecision" stroke-miterlimit="1.45" shape-rendering="geometricPrecision" transform="matrix(1,0,0,1,-58,17)" stroke-linecap="butt">
      <rect fill="none" x="232" width="30" height="30" y="87.3504" clip-path="url(#clipPath2)"/>
    </g>
    <g fill="rgb(204,153,255)" text-rendering="geometricPrecision" shape-rendering="geometricPrecision" transform="matrix(1,0,0,1,-58,17)" stroke="rgb(204,153,255)">
      <rect x="262" width="30" height="30" y="87.3504" clip-path="url(#clipPath2)" stroke="none"/>
    </g>
    <g text-rendering="geometricPrecision" stroke-miterlimit="1.45" shape-rendering="geometricPrecision" transform="matrix(1,0,0,1,-58,17)" stroke-linecap="butt">
      <rect fill="none" x="262" width="30" height="30" y="87.3504" clip-path="url(#clipPath2)"/>
    </g>
    <g fill="rgb(204,153,255)" text-rendering="geometricPrecision" shape-rendering="geometricPrecision" transform="matrix(1,0,0,1,-58,17)" stroke="rgb(204,153,255)">
      <rect x="292" width="30" height="30" y="87.3504" clip-path="url(#clipPath2)" stroke="none"/>
    </g>
    <g text-rendering="geometricPrecision" stroke-miterlimit="1.45" shape-rendering="geometricPrecision" transform="matrix(1,0,0,1,-58,17)" stroke-linecap="butt">
      <rect fill="none" x="292" width="30" height="30" y="87.3504" clip-path="url(#clipPath2)"/>
      <text x="191.6611" xml:space="preserve" y="79.5722" clip-path="url(#clipPath2)" font-family="sans-serif" stroke="none">Tag</text>
      <text x="272.9556" xml:space="preserve" y="63.2104" clip-path="url(#clipPath2)" font-family="sans-serif" stroke="none">Length</text>
      <text x="277.9683" xml:space="preserve" y="77.9116" clip-path="url(#clipPath2)" font-family="sans-serif" stroke="none">Type</text>
    </g>
    <g fill="rgb(255,204,0)" text-rendering="geometricPrecision" shape-rendering="geometricPrecision" transform="matrix(1,0,0,1,-58,17)" stroke="rgb(255,204,0)">
      <rect x="82" width="30" height="30" y="355.0759" clip-path="url(#clipPath2)" stroke="none"/>
    </g>
    <g text-rendering="geometricPrecision" stroke-miterlimit="1.45" shape-rendering="geometricPrecision" transform="matrix(1,0,0,1,-58,17)" stroke-linecap="butt">
      <rect fill="none" x="82" width="30" height="30" y="355.0759" clip-path="url(#clipPath2)"/>
      <text x="93.6631" xml:space="preserve" y="374.7898" clip-path="url(#clipPath2)" font-family="sans-serif" stroke="none">1</text>
    </g>
    <g fill="rgb(153,255,153)" text-rendering="geometricPrecision" shape-rendering="geometricPrecision" transform="matrix(1,0,0,1,-58,17)" stroke="rgb(153,255,153)">
      <rect x="112" width="30" height="30" y="355.0759" clip-path="url(#clipPath2)" stroke="none"/>
    </g>
    <g text-rendering="geometricPrecision" stroke-miterlimit="1.45" shape-rendering="geometricPrecision" transform="matrix(1,0,0,1,-58,17)" stroke-linecap="butt">
      <rect fill="none" x="112" width="30" height="30" y="355.0759" clip-path="url(#clipPath2)"/>
      <text x="123.6631" xml:space="preserve" y="374.7898" clip-path="url(#clipPath2)" font-family="sans-serif" stroke="none">1</text>
    </g>
    <g fill="rgb(153,153,255)" text-rendering="geometricPrecision" shape-rendering="geometricPrecision" transform="matrix(1,0,0,1,-58,17)" stroke="rgb(153,153,255)">
      <rect x="142" width="30" height="30" y="355.0759" clip-path="url(#clipPath2)" stroke="none"/>
    </g>
    <g text-rendering="geometricPrecision" stroke-miterlimit="1.45" shape-rendering="geometricPrecision" transform="matrix(1,0,0,1,-58,17)" stroke-linecap="butt">
      <rect fill="none" x="142" width="30" height="30" y="355.0759" clip-path="url(#clipPath2)"/>
    </g>
    <g fill="rgb(153,153,255)" text-rendering="geometricPrecision" shape-rendering="geometricPrecision" transform="matrix(1,0,0,1,-58,17)" stroke="rgb(153,153,255)">
      <rect x="172" width="30" height="30" y="355.0759" clip-path="url(#clipPath2)" stroke="none"/>
    </g>
    <g text-rendering="geometricPrecision" stroke-miterlimit="1.45" shape-rendering="geometricPrecision" transform="matrix(1,0,0,1,-58,17)" stroke-linecap="butt">
      <rect fill="none" x="172" width="30" height="30" y="355.0759" clip-path="url(#clipPath2)"/>
    </g>
    <g fill="rgb(153,153,255)" text-rendering="geometricPrecision" shape-rendering="geometricPrecision" transform="matrix(1,0,0,1,-58,17)" stroke="rgb(153,153,255)">
      <rect x="202" width="30" height="30" y="355.0759" clip-path="url(#clipPath2)" stroke="none"/>
    </g>
    <g text-rendering="geometricPrecision" stroke-miterlimit="1.45" shape-rendering="geometricPrecision" transform="matrix(1,0,0,1,-58,17)" stroke-linecap="butt">
      <rect fill="none" x="202" width="30" height="30" y="355.0759" clip-path="url(#clipPath2)"/>
    </g>
    <g fill="rgb(153,153,255)" text-rendering="geometricPrecision" shape-rendering="geometricPrecision" transform="matrix(1,0,0,1,-58,17)" stroke="rgb(153,153,255)">
      <rect x="232" width="30" height="30" y="355.0759" clip-path="url(#clipPath2)" stroke="none"/>
    </g>
    <g text-rendering="geometricPrecision" stroke-miterlimit="1.45" shape-rendering="geometricPrecision" transform="matrix(1,0,0,1,-58,17)" stroke-linecap="butt">
      <rect fill="none" x="232" width="30" height="30" y="355.0759" clip-path="url(#clipPath2)"/>
    </g>
    <g fill="rgb(153,153,255)" text-rendering="geometricPrecision" shape-rendering="geometricPrecision" transform="matrix(1,0,0,1,-58,17)" stroke="rgb(153,153,255)">
      <rect x="262" width="30" height="30" y="355.0759" clip-path="url(#clipPath2)" stroke="none"/>
    </g>
    <g text-rendering="geometricPrecision" stroke-miterlimit="1.45" shape-rendering="geometricPrecision" transform="matrix(1,0,0,1,-58,17)" stroke-linecap="butt">
      <rect fill="none" x="262" width="30" height="30" y="355.0759" clip-path="url(#clipPath2)"/>
    </g>
    <g fill="rgb(153,153,255)" text-rendering="geometricPrecision" shape-rendering="geometricPrecision" transform="matrix(1,0,0,1,-58,17)" stroke="rgb(153,153,255)">
      <rect x="292" width="30" height="30" y="355.0759" clip-path="url(#clipPath2)" stroke="none"/>
    </g>
    <g text-rendering="geometricPrecision" stroke-miterlimit="1.45" shape-rendering="geometricPrecision" transform="matrix(1,0,0,1,-58,17)" stroke-linecap="butt">
      <rect fill="none" x="292" width="30" height="30" y="355.0759" clip-path="url(#clipPath2)"/>
      <text x="218.9067" xml:space="preserve" y="347.2977" clip-path="url(#clipPath2)" font-family="sans-serif" stroke="none">Tag</text>
    </g>
    <g fill="rgb(255,153,153)" text-rendering="geometricPrecision" shape-rendering="geometricPrecision" transform="matrix(1,0,0,1,-58,17)" stroke="rgb(255,153,153)">
      <rect x="322" width="30" height="30" y="117.3504" clip-path="url(#clipPath2)" stroke="none"/>
    </g>
    <g text-rendering="geometricPrecision" stroke-miterlimit="1.45" shape-rendering="geometricPrecision" transform="matrix(1,0,0,1,-58,17)" stroke-linecap="butt">
      <rect fill="none" x="322" width="30" height="30" y="117.3504" clip-path="url(#clipPath2)"/>
    </g>
    <g fill="rgb(255,153,153)" text-rendering="geometricPrecision" shape-rendering="geometricPrecision" transform="matrix(1,0,0,1,-58,17)" stroke="rgb(255,153,153)">
      <rect x="322" width="30" height="30" y="147.3504" clip-path="url(#clipPath2)" stroke="none"/>
    </g>
    <g text-rendering="geometricPrecision" stroke-miterlimit="1.45" shape-rendering="geometricPrecision" transform="matrix(1,0,0,1,-58,17)" stroke-linecap="butt">
      <rect fill="none" x="322" width="30" height="30" y="147.3504" clip-path="url(#clipPath2)"/>
    </g>
    <g fill="rgb(255,153,153)" text-rendering="geometricPrecision" shape-rendering="geometricPrecision" transform="matrix(1,0,0,1,-58,17)" stroke="rgb(255,153,153)">
      <rect x="352" width="30" height="30" y="147.3504" clip-path="url(#clipPath2)" stroke="none"/>
    </g>
    <g text-rendering="geometricPrecision" stroke-miterlimit="1.45" shape-rendering="geometricPrecision" transform="matrix(1,0,0,1,-58,17)" stroke-linecap="butt">
      <rect fill="none" x="352" width="30" height="30" y="147.3504" clip-path="url(#clipPath2)"/>
    </g>
    <g fill="rgb(255,153,153)" text-rendering="geometricPrecision" shape-rendering="geometricPrecision" transform="matrix(1,0,0,1,-58,17)" stroke="rgb(255,153,153)">
      <rect x="322" width="30" height="30" y="177.3504" clip-path="url(#clipPath2)" stroke="none"/>
    </g>
    <g text-rendering="geometricPrecision" stroke-miterlimit="1.45" shape-rendering="geometricPrecision" transform="matrix(1,0,0,1,-58,17)" stroke-linecap="butt">
      <rect fill="none" x="322" width="30" height="30" y="177.3504" clip-path="url(#clipPath2)"/>
    </g>
    <g fill="rgb(255,153,153)" text-rendering="geometricPrecision" shape-rendering="geometricPrecision" transform="matrix(1,0,0,1,-58,17)" stroke="rgb(255,153,153)">
      <rect x="352" width="30" height="30" y="177.3504" clip-path="url(#clipPath2)" stroke="none"/>
    </g>
    <g text-rendering="geometricPrecision" stroke-miterlimit="1.45" shape-rendering="geometricPrecision" transform="matrix(1,0,0,1,-58,17)" stroke-linecap="butt">
      <rect fill="none" x="352" width="30" height="30" y="177.3504" clip-path="url(#clipPath2)"/>
    </g>
    <g fill="rgb(255,153,153)" text-rendering="geometricPrecision" shape-rendering="geometricPrecision" transform="matrix(1,0,0,1,-58,17)" stroke="rgb(255,153,153)">
      <rect x="382" width="30" height="30" y="177.3504" clip-path="url(#clipPath2)" stroke="none"/>
    </g>
    <g text-rendering="geometricPrecision" stroke-miterlimit="1.45" shape-rendering="geometricPrecision" transform="matrix(1,0,0,1,-58,17)" stroke-linecap="butt">
      <rect fill="none" x="382" width="30" height="30" y="177.3504" clip-path="url(#clipPath2)"/>
    </g>
    <g fill="rgb(255,153,153)" text-rendering="geometricPrecision" shape-rendering="geometricPrecision" transform="matrix(1,0,0,1,-58,17)" stroke="rgb(255,153,153)">
      <rect x="412" width="30" height="30" y="177.3504" clip-path="url(#clipPath2)" stroke="none"/>
    </g>
    <g text-rendering="geometricPrecision" stroke-miterlimit="1.45" shape-rendering="geometricPrecision" transform="matrix(1,0,0,1,-58,17)" stroke-linecap="butt">
      <rect fill="none" x="412" width="30" height="30" y="177.3504" clip-path="url(#clipPath2)"/>
      <text x="365.2012" xml:space="preserve" y="224.7281" clip-path="url(#clipPath2)" font-family="sans-serif" stroke="none">Length</text>
      <rect x="73.548" y="-1.3728" clip-path="url(#clipPath2)" fill="none" width="381.0272" rx="4" ry="4" height="233.9808" stroke-width="2"/>
      <text x="212.3848" y="13.6907" clip-path="url(#clipPath2)" font-family="sans-serif" stroke="none" font-weight="bold" xml:space="preserve">Old format header</text>
    </g>
    <g fill="rgb(255,153,153)" text-rendering="geometricPrecision" shape-rendering="geometricPrecision" transform="matrix(1,0,0,1,-58,17)" stroke="rgb(255,153,153)">
      <rect x="322" width="30" height="30" y="385.0759" clip-path="url(#clipPath2)" stroke="none"/>
    </g>
    <g text-rendering="geometricPrecision" stroke-miterlimit="1.45" shape-rendering="geometricPrecision" transform="matrix(1,0,0,1,-58,17)" stroke-linecap="butt">
      <rect fill="none" x="322" width="30" height="30" y="385.0759" clip-path="url(#clipPath2)"/>
    </g>
    <g fill="rgb(255,153,153)" text-rendering="geometricPrecision" shape-rendering="geometricPrecision" transform="matrix(1,0,0,1,-58,17)" stroke="rgb(255,153,153)">
      <rect x="322" width="30" height="30" y="415.0759" clip-path="url(#clipPath2)" stroke="none"/>
    </g>
    <g text-rendering="geometricPrecision" stroke-miterlimit="1.45" shape-rendering="geometricPrecision" transform="matrix(1,0,0,1,-58,17)" stroke-linecap="butt">
      <rect fill="none" x="322" width="30" height="30" y="415.0759" clip-path="url(#clipPath2)"/>
    </g>
    <g fill="rgb(255,153,153)" text-rendering="geometricPrecision" shape-rendering="geometricPrecision" transform="matrix(1,0,0,1,-58,17)" stroke="rgb(255,153,153)">
      <rect x="352" width="30" height="30" y="415.0759" clip-path="url(#clipPath2)" stroke="none"/>
    </g>
    <g text-rendering="geometricPrecision" stroke-miterlimit="1.45" shape-rendering="geometricPrecision" transform="matrix(1,0,0,1,-58,17)" stroke-linecap="butt">
      <rect fill="none" x="352" width="30" height="30" y="415.0759" clip-path="url(#clipPath2)"/>
    </g>
    <g fill="rgb(255,153,153)" text-rendering="geometricPrecision" shape-rendering="geometricPrecision" transform="matrix(1,0,0,1,-58,17)" stroke="rgb(255,153,153)">
      <rect x="322" width="30" height="30" y="445.0759" clip-path="url(#clipPath2)" stroke="none"/>
    </g>
    <g text-rendering="geometricPrecision" stroke-miterlimit="1.45" shape-rendering="geometricPrecision" transform="matrix(1,0,0,1,-58,17)" stroke-linecap="butt">
      <rect fill="none" x="322" width="30" height="30" y="445.0759" clip-path="url(#clipPath2)"/>
    </g>
    <g fill="rgb(255,153,153)" text-rendering="geometricPrecision" shape-rendering="geometricPrecision" transform="matrix(1,0,0,1,-58,17)" stroke="rgb(255,153,153)">
      <rect x="352" width="30" height="30" y="445.0759" clip-path="url(#clipPath2)" stroke="none"/>
    </g>
    <g text-rendering="geometricPrecision" stroke-miterlimit="1.45" shape-rendering="geometricPrecision" transform="matrix(1,0,0,1,-58,17)" stroke-linecap="butt">
      <rect fill="none" x="352" width="30" height="30" y="445.0759" clip-path="url(#clipPath2)"/>
    </g>
    <g fill="rgb(255,153,153)" text-rendering="geometricPrecision" shape-rendering="geometricPrecision" transform="matrix(1,0,0,1,-58,17)" stroke="rgb(255,153,153)">
      <rect x="382" width="30" height="30" y="445.0759" clip-path="url(#clipPath2)" stroke="none"/>
    </g>
    <g text-rendering="geometricPrecision" stroke-miterlimit="1.45" shape-rendering="geometricPrecision" transform="matrix(1,0,0,1,-58,17)" stroke-linecap="butt">
      <rect fill="none" x="382" width="30" height="30" y="445.0759" clip-path="url(#clipPath2)"/>
    </g>
    <g fill="rgb(255,153,153)" text-rendering="geometricPrecision" shape-rendering="geometricPrecision" transform="matrix(1,0,0,1,-58,17)" stroke="rgb(255,153,153)">
      <rect x="412" width="30" height="30" y="445.0759" clip-path="url(#clipPath2)" stroke="none"/>
    </g>
    <g text-rendering="geometricPrecision" stroke-miterlimit="1.45" shape-rendering="geometricPrecision" transform="matrix(1,0,0,1,-58,17)" stroke-linecap="butt">
      <rect fill="none" x="412" width="30" height="30" y="445.0759" clip-path="url(#clipPath2)"/>
    </g>
    <g fill="rgb(255,153,153)" text-rendering="geometricPrecision" shape-rendering="geometricPrecision" transform="matrix(1,0,0,1,-58,17)" stroke="rgb(255,153,153)">
      <rect x="442" width="30" height="30" y="445.0759" clip-path="url(#clipPath2)" stroke="none"/>
    </g>
    <g text-rendering="geometricPrecision" stroke-miterlimit="1.45" shape-rendering="geometricPrecision" transform="matrix(1,0,0,1,-58,17)" stroke-linecap="butt">
      <rect fill="none" x="442" width="30" height="30" y="445.0759" clip-path="url(#clipPath2)"/>
      <text x="380.8156" xml:space="preserve" y="496.488" clip-path="url(#clipPath2)" font-family="sans-serif" stroke="none">Length</text>
      <rect x="73.548" y="263.4356" clip-path="url(#clipPath2)" fill="none" width="411.8496" rx="4" ry="4" height="241.0208" stroke-width="2"/>
      <text x="205.1429" y="278.8387" clip-path="url(#clipPath2)" font-family="sans-serif" stroke="none" font-weight="bold" xml:space="preserve">New format header</text>
    </g>
  </g>
</svg>
