<?xml version="1.0" encoding="UTF-8"?><svg xmlns="http://www.w3.org/2000/svg" xmlns:xlink="http://www.w3.org/1999/xlink" fill-opacity="1" color-rendering="auto" color-interpolation="auto" text-rendering="auto" stroke="black" stroke-linecap="square" width="445" stroke-miterlimit="10" shape-rendering="auto" stroke-opacity="1" fill="black" stroke-dasharray="none" font-weight="normal" stroke-width="1" height="60" font-family="'Dialog'" font-style="normal" stroke-linejoin="miter" font-size="12px" stroke-dashoffset="0" image-rendering="auto">
  <!--Generated by ySVG 2.5-->
  <defs id="genericDefs"/>
  <g>
    <defs id="defs1">
      <clipPath clipPathUnits="userSpaceOnUse" id="clipPath1">
        <path d="M0 0 L445 0 L445 60 L0 60 L0 0 Z"/>
      </clipPath>
      <clipPath clipPathUnits="userSpaceOnUse" id="clipPath2">
        <path d="M202 122 L647 122 L647 182 L202 182 L202 122 Z"/>
      </clipPath>
    </defs>
    <g fill="white" text-rendering="geometricPrecision" shape-rendering="geometricPrecision" transform="translate(-202,-122)" stroke="white">
      <rect x="202" width="445" height="60" y="122" clip-path="url(#clipPath2)" stroke="none"/>
    </g>
    <g fill="rgb(255,204,0)" text-rendering="geometricPrecision" shape-rendering="geometricPrecision" transform="matrix(1,0,0,1,-202,-122)" stroke="rgb(255,204,0)">
      <rect x="217" width="103" height="30" y="137" clip-path="url(#clipPath2)" stroke="none"/>
    </g>
    <g text-rendering="geometricPrecision" stroke-miterlimit="1.45" shape-rendering="geometricPrecision" transform="matrix(1,0,0,1,-202,-122)" stroke-linecap="butt">
      <rect fill="none" x="217" width="103" height="30" y="137" clip-path="url(#clipPath2)"/>
      <text x="249.8174" xml:space="preserve" y="156.7139" clip-path="url(#clipPath2)" font-family="sans-serif" stroke="none">header</text>
    </g>
    <g fill="rgb(153,255,153)" text-rendering="geometricPrecision" shape-rendering="geometricPrecision" transform="matrix(1,0,0,1,-202,-122)" stroke="rgb(153,255,153)">
      <rect x="320" width="312" height="30" y="137" clip-path="url(#clipPath2)" stroke="none"/>
    </g>
    <g text-rendering="geometricPrecision" stroke-miterlimit="1.45" shape-rendering="geometricPrecision" transform="matrix(1,0,0,1,-202,-122)" stroke-linecap="butt">
      <rect fill="none" x="320" width="312" height="30" y="137" clip-path="url(#clipPath2)"/>
      <text x="429.3066" xml:space="preserve" y="156.7139" clip-path="url(#clipPath2)" font-family="sans-serif" stroke="none">body (or payload)</text>
    </g>
  </g>
</svg>
