<?xml version="1.0" encoding="UTF-8"?><svg xmlns="http://www.w3.org/2000/svg" xmlns:xlink="http://www.w3.org/1999/xlink" fill-opacity="1" color-rendering="auto" color-interpolation="auto" text-rendering="auto" stroke="black" stroke-linecap="square" width="299" stroke-miterlimit="10" shape-rendering="auto" stroke-opacity="1" fill="black" stroke-dasharray="none" font-weight="normal" stroke-width="1" height="222" font-family="'Dialog'" font-style="normal" stroke-linejoin="miter" font-size="12px" stroke-dashoffset="0" image-rendering="auto">
  <!--Generated by ySVG 2.5-->
  <defs id="genericDefs"/>
  <g>
    <defs id="defs1">
      <clipPath clipPathUnits="userSpaceOnUse" id="clipPath1">
        <path d="M0 0 L299 0 L299 222 L0 222 L0 0 Z"/>
      </clipPath>
      <clipPath clipPathUnits="userSpaceOnUse" id="clipPath2">
        <path d="M211 643 L510 643 L510 865 L211 865 L211 643 Z"/>
      </clipPath>
    </defs>
    <g fill="white" text-rendering="geometricPrecision" shape-rendering="geometricPrecision" transform="translate(-211,-643)" stroke="white">
      <rect x="211" width="299" height="222" y="643" clip-path="url(#clipPath2)" stroke="none"/>
    </g>
    <g fill="rgb(153,153,153)" text-rendering="geometricPrecision" shape-rendering="geometricPrecision" transform="matrix(1,0,0,1,-211,-643)" stroke="rgb(153,153,153)">
      <rect x="227" width="268" height="185.1549" y="664.8304" clip-path="url(#clipPath2)" stroke="none"/>
    </g>
    <g text-rendering="geometricPrecision" stroke-miterlimit="1.45" shape-rendering="geometricPrecision" transform="matrix(1,0,0,1,-211,-643)" stroke-linecap="butt">
      <rect fill="none" x="227" width="268" height="185.1549" y="664.8304" clip-path="url(#clipPath2)"/>
    </g>
    <g stroke-linecap="butt" transform="matrix(1,0,0,1,-211,-643)" fill="red" text-rendering="geometricPrecision" font-family="sans-serif" shape-rendering="geometricPrecision" stroke="red" font-weight="bold" stroke-miterlimit="1.45">
      <text x="312.3145" xml:space="preserve" y="683.5324" clip-path="url(#clipPath2)" stroke="none">Signature Packet</text>
      <text x="286.6475" xml:space="preserve" y="698.2336" clip-path="url(#clipPath2)" stroke="none">Key Revocation Signature</text>
      <text x="308.6406" xml:space="preserve" y="712.9348" clip-path="url(#clipPath2)" stroke="none">[tag=2, type=0x20]</text>
    </g>
    <g fill="rgb(255,204,153)" text-rendering="geometricPrecision" shape-rendering="geometricPrecision" transform="matrix(1,0,0,1,-211,-643)" stroke="rgb(255,204,153)">
      <rect x="255.4784" width="211.0432" height="30" y="728.7437" clip-path="url(#clipPath2)" stroke="none"/>
    </g>
    <g text-rendering="geometricPrecision" stroke-miterlimit="1.45" shape-rendering="geometricPrecision" transform="matrix(1,0,0,1,-211,-643)" stroke-linecap="butt">
      <rect fill="none" x="255.4784" width="211.0432" height="30" y="728.7437" clip-path="url(#clipPath2)"/>
      <text x="295.9697" xml:space="preserve" y="748.4576" clip-path="url(#clipPath2)" font-family="sans-serif" stroke="none">Signature Creation Time</text>
    </g>
    <g fill="rgb(255,204,153)" text-rendering="geometricPrecision" shape-rendering="geometricPrecision" transform="matrix(1,0,0,1,-211,-643)" stroke="rgb(255,204,153)">
      <rect x="255.4784" width="211.0432" height="30" y="763.9067" clip-path="url(#clipPath2)" stroke="none"/>
    </g>
    <g text-rendering="geometricPrecision" stroke-miterlimit="1.45" shape-rendering="geometricPrecision" transform="matrix(1,0,0,1,-211,-643)" stroke-linecap="butt">
      <rect fill="none" x="255.4784" width="211.0432" height="30" y="763.9067" clip-path="url(#clipPath2)"/>
      <text x="344.6611" xml:space="preserve" y="783.6205" clip-path="url(#clipPath2)" font-family="sans-serif" stroke="none">Issuer</text>
    </g>
    <g fill="rgb(255,204,153)" text-rendering="geometricPrecision" shape-rendering="geometricPrecision" transform="matrix(1,0,0,1,-211,-643)" stroke="rgb(255,204,153)">
      <rect x="255.4784" width="211.0432" height="30" y="799.0696" clip-path="url(#clipPath2)" stroke="none"/>
    </g>
    <g text-rendering="geometricPrecision" stroke-miterlimit="1.45" shape-rendering="geometricPrecision" transform="matrix(1,0,0,1,-211,-643)" stroke-linecap="butt">
      <rect fill="none" x="255.4784" width="211.0432" height="30" y="799.0696" clip-path="url(#clipPath2)"/>
      <text x="312.3027" xml:space="preserve" y="818.7835" clip-path="url(#clipPath2)" font-family="sans-serif" stroke="none">Revocaton reason</text>
    </g>
  </g>
</svg>
