<?xml version="1.0" encoding="UTF-8"?><svg xmlns="http://www.w3.org/2000/svg" xmlns:xlink="http://www.w3.org/1999/xlink" fill-opacity="1" color-rendering="auto" color-interpolation="auto" text-rendering="auto" stroke="black" stroke-linecap="square" width="836" stroke-miterlimit="10" shape-rendering="auto" stroke-opacity="1" fill="black" stroke-dasharray="none" font-weight="normal" stroke-width="1" height="216" font-family="'Dialog'" font-style="normal" stroke-linejoin="miter" font-size="12px" stroke-dashoffset="0" image-rendering="auto">
  <!--Generated by ySVG 2.5-->
  <defs id="genericDefs"/>
  <g>
    <defs id="defs1">
      <clipPath clipPathUnits="userSpaceOnUse" id="clipPath1">
        <path d="M0 0 L836 0 L836 216 L0 216 L0 0 Z"/>
      </clipPath>
      <clipPath clipPathUnits="userSpaceOnUse" id="clipPath2">
        <path d="M195 111 L1031 111 L1031 327 L195 327 L195 111 Z"/>
      </clipPath>
    </defs>
    <g fill="white" text-rendering="geometricPrecision" shape-rendering="geometricPrecision" transform="translate(-195,-111)" stroke="white">
      <rect x="195" width="836" height="216" y="111" clip-path="url(#clipPath2)" stroke="none"/>
    </g>
    <g fill="rgb(204,255,204)" text-rendering="geometricPrecision" shape-rendering="geometricPrecision" transform="matrix(1,0,0,1,-195,-111)" stroke="rgb(204,255,204)">
      <rect x="213" width="244" height="52" y="193" clip-path="url(#clipPath2)" stroke="none"/>
    </g>
    <g text-rendering="geometricPrecision" stroke-miterlimit="1.45" shape-rendering="geometricPrecision" transform="matrix(1,0,0,1,-195,-111)" stroke-linecap="butt">
      <rect fill="none" x="213" width="244" height="52" y="193" clip-path="url(#clipPath2)"/>
      <text x="249.6406" xml:space="preserve" y="223.1543" clip-path="url(#clipPath2)" font-family="sans-serif" stroke="none">OnePassSignaturePacket (4)</text>
    </g>
    <g fill="rgb(255,204,0)" text-rendering="geometricPrecision" shape-rendering="geometricPrecision" transform="matrix(1,0,0,1,-195,-111)" stroke="rgb(255,204,0)">
      <rect x="457" width="244" height="52" y="193" clip-path="url(#clipPath2)" stroke="none"/>
    </g>
    <g text-rendering="geometricPrecision" stroke-miterlimit="1.45" shape-rendering="geometricPrecision" transform="matrix(1,0,0,1,-195,-111)" stroke-linecap="butt">
      <rect fill="none" x="457" width="244" height="52" y="193" clip-path="url(#clipPath2)"/>
      <text x="519.7002" xml:space="preserve" y="223.1543" clip-path="url(#clipPath2)" font-family="sans-serif" stroke="none">PGPLiteralData (11)</text>
    </g>
    <g fill="rgb(153,204,0)" text-rendering="geometricPrecision" shape-rendering="geometricPrecision" transform="matrix(1,0,0,1,-195,-111)" stroke="rgb(153,204,0)">
      <rect x="701" width="244" height="52" y="193" clip-path="url(#clipPath2)" stroke="none"/>
    </g>
    <g text-rendering="geometricPrecision" stroke-miterlimit="1.45" shape-rendering="geometricPrecision" transform="matrix(1,0,0,1,-195,-111)" stroke-linecap="butt">
      <rect fill="none" x="701" width="244" height="52" y="193" clip-path="url(#clipPath2)"/>
      <text x="763.4043" xml:space="preserve" y="223.1543" clip-path="url(#clipPath2)" font-family="sans-serif" stroke="none">SignaturePacket (2)</text>
    </g>
    <g fill="white" text-rendering="geometricPrecision" shape-rendering="geometricPrecision" transform="matrix(1,0,0,1,-195,-111)" stroke="white">
      <path d="M235.0001 281.6 L460 281.6 L434.9999 311.6 L209.9999 311.6 Z" fill-rule="evenodd" clip-path="url(#clipPath2)" stroke="none"/>
    </g>
    <g text-rendering="geometricPrecision" stroke-miterlimit="1.45" shape-rendering="geometricPrecision" transform="matrix(1,0,0,1,-195,-111)" stroke-linecap="butt">
      <path fill="none" d="M235.0001 281.6 L460 281.6 L434.9999 311.6 L209.9999 311.6 Z" fill-rule="evenodd" clip-path="url(#clipPath2)"/>
      <text x="251.5977" xml:space="preserve" y="300.7543" clip-path="url(#clipPath2)" font-family="sans-serif" stroke="none">signature.encode(basicOut)</text>
    </g>
    <g fill="white" text-rendering="geometricPrecision" shape-rendering="geometricPrecision" transform="matrix(1,0,0,1,-195,-111)" stroke="white">
      <path d="M482 126.4 L707.0001 126.4 L682.0001 156.4 L457 156.4 Z" fill-rule="evenodd" clip-path="url(#clipPath2)" stroke="none"/>
    </g>
    <g text-rendering="geometricPrecision" stroke-miterlimit="1.45" shape-rendering="geometricPrecision" transform="matrix(1,0,0,1,-195,-111)" stroke-linecap="butt">
      <path fill="none" d="M482 126.4 L707.0001 126.4 L682.0001 156.4 L457 156.4 Z" fill-rule="evenodd" clip-path="url(#clipPath2)"/>
      <text x="488.3936" xml:space="preserve" y="145.5543" clip-path="url(#clipPath2)" font-family="sans-serif" stroke="none">lOut.write(messageCharArray);</text>
    </g>
    <g fill="white" text-rendering="geometricPrecision" shape-rendering="geometricPrecision" transform="matrix(1,0,0,1,-195,-111)" stroke="white">
      <path d="M668.9212 275 L1015.6022 275 L977.084 305 L630.4019 305 Z" fill-rule="evenodd" clip-path="url(#clipPath2)" stroke="none"/>
    </g>
    <g text-rendering="geometricPrecision" stroke-miterlimit="1.45" shape-rendering="geometricPrecision" transform="matrix(1,0,0,1,-195,-111)" stroke-linecap="butt">
      <path fill="none" d="M668.9212 275 L1015.6022 275 L977.084 305 L630.4019 305 Z" fill-rule="evenodd" clip-path="url(#clipPath2)"/>
      <text x="683.1689" xml:space="preserve" y="294.1543" clip-path="url(#clipPath2)" font-family="sans-serif" stroke="none">signerGenerator.generate().encode(basicOut);</text>
      <path fill="none" d="M335 281.6332 L335 253" clip-path="url(#clipPath2)"/>
      <path d="M335 245 L330 257 L335 254 L340 257 Z" clip-path="url(#clipPath2)" stroke="none"/>
      <path fill="none" d="M581.4214 156.3668 L580.3142 185.006" clip-path="url(#clipPath2)"/>
      <path d="M580.0051 193 L585.465 181.2021 L580.3528 184.0067 L575.4725 180.8158 Z" clip-path="url(#clipPath2)" stroke="none"/>
      <path fill="none" d="M823 274.9888 L823 253" clip-path="url(#clipPath2)"/>
      <path d="M823 245 L818 257 L823 254 L828 257 Z" clip-path="url(#clipPath2)" stroke="none"/>
    </g>
  </g>
</svg>
