<?xml version="1.0" encoding="UTF-8"?><svg xmlns="http://www.w3.org/2000/svg" xmlns:xlink="http://www.w3.org/1999/xlink" fill-opacity="1" color-rendering="auto" color-interpolation="auto" text-rendering="auto" stroke="black" stroke-linecap="square" width="330" stroke-miterlimit="10" shape-rendering="auto" stroke-opacity="1" fill="black" stroke-dasharray="none" font-weight="normal" stroke-width="1" height="60" font-family="'Dialog'" font-style="normal" stroke-linejoin="miter" font-size="12px" stroke-dashoffset="0" image-rendering="auto">
  <!--Generated by ySVG 2.5-->
  <defs id="genericDefs"/>
  <g>
    <defs id="defs1">
      <clipPath clipPathUnits="userSpaceOnUse" id="clipPath1">
        <path d="M0 0 L330 0 L330 60 L0 60 L0 0 Z"/>
      </clipPath>
      <clipPath clipPathUnits="userSpaceOnUse" id="clipPath2">
        <path d="M84 155 L414 155 L414 215 L84 215 L84 155 Z"/>
      </clipPath>
    </defs>
    <g fill="white" text-rendering="geometricPrecision" shape-rendering="geometricPrecision" transform="translate(-84,-155)" stroke="white">
      <rect x="84" width="330" height="60" y="155" clip-path="url(#clipPath2)" stroke="none"/>
    </g>
    <g fill="rgb(255,204,0)" text-rendering="geometricPrecision" shape-rendering="geometricPrecision" transform="matrix(1,0,0,1,-84,-155)" stroke="rgb(255,204,0)">
      <rect x="99" width="30" height="30" y="170" clip-path="url(#clipPath2)" stroke="none"/>
    </g>
    <g text-rendering="geometricPrecision" stroke-miterlimit="1.45" shape-rendering="geometricPrecision" transform="matrix(1,0,0,1,-84,-155)" stroke-linecap="butt">
      <rect fill="none" x="99" width="30" height="30" y="170" clip-path="url(#clipPath2)"/>
      <text x="107.3262" xml:space="preserve" y="189.7139" clip-path="url(#clipPath2)" font-family="sans-serif" stroke="none">09</text>
    </g>
    <g fill="rgb(255,204,0)" text-rendering="geometricPrecision" shape-rendering="geometricPrecision" transform="matrix(1,0,0,1,-84,-155)" stroke="rgb(255,204,0)">
      <rect x="129" width="30" height="30" y="170" clip-path="url(#clipPath2)" stroke="none"/>
    </g>
    <g text-rendering="geometricPrecision" stroke-miterlimit="1.45" shape-rendering="geometricPrecision" transform="matrix(1,0,0,1,-84,-155)" stroke-linecap="butt">
      <rect fill="none" x="129" width="30" height="30" y="170" clip-path="url(#clipPath2)"/>
      <text x="137.3262" xml:space="preserve" y="189.7139" clip-path="url(#clipPath2)" font-family="sans-serif" stroke="none">10</text>
    </g>
    <g fill="rgb(153,204,255)" text-rendering="geometricPrecision" shape-rendering="geometricPrecision" transform="matrix(1,0,0,1,-84,-155)" stroke="rgb(153,204,255)">
      <rect x="159" width="30" height="30" y="170" clip-path="url(#clipPath2)" stroke="none"/>
    </g>
    <g text-rendering="geometricPrecision" stroke-miterlimit="1.45" shape-rendering="geometricPrecision" transform="matrix(1,0,0,1,-84,-155)" stroke-linecap="butt">
      <rect fill="none" x="159" width="30" height="30" y="170" clip-path="url(#clipPath2)"/>
      <text x="166.333" xml:space="preserve" y="189.7139" clip-path="url(#clipPath2)" font-family="sans-serif" stroke="none">EF</text>
    </g>
    <g fill="rgb(153,204,255)" text-rendering="geometricPrecision" shape-rendering="geometricPrecision" transform="matrix(1,0,0,1,-84,-155)" stroke="rgb(153,204,255)">
      <rect x="189" width="30" height="30" y="170" clip-path="url(#clipPath2)" stroke="none"/>
    </g>
    <g text-rendering="geometricPrecision" stroke-miterlimit="1.45" shape-rendering="geometricPrecision" transform="matrix(1,0,0,1,-84,-155)" stroke-linecap="butt">
      <rect fill="none" x="189" width="30" height="30" y="170" clip-path="url(#clipPath2)"/>
      <text x="196.3301" xml:space="preserve" y="189.7139" clip-path="url(#clipPath2)" font-family="sans-serif" stroke="none">C8</text>
    </g>
    <g fill="rgb(153,204,255)" text-rendering="geometricPrecision" shape-rendering="geometricPrecision" transform="matrix(1,0,0,1,-84,-155)" stroke="rgb(153,204,255)">
      <rect x="219" width="30" height="30" y="170" clip-path="url(#clipPath2)" stroke="none"/>
    </g>
    <g text-rendering="geometricPrecision" stroke-miterlimit="1.45" shape-rendering="geometricPrecision" transform="matrix(1,0,0,1,-84,-155)" stroke-linecap="butt">
      <rect fill="none" x="219" width="30" height="30" y="170" clip-path="url(#clipPath2)"/>
      <text x="227.3262" xml:space="preserve" y="189.7139" clip-path="url(#clipPath2)" font-family="sans-serif" stroke="none">52</text>
    </g>
    <g fill="rgb(153,204,255)" text-rendering="geometricPrecision" shape-rendering="geometricPrecision" transform="matrix(1,0,0,1,-84,-155)" stroke="rgb(153,204,255)">
      <rect x="249" width="30" height="30" y="170" clip-path="url(#clipPath2)" stroke="none"/>
    </g>
    <g text-rendering="geometricPrecision" stroke-miterlimit="1.45" shape-rendering="geometricPrecision" transform="matrix(1,0,0,1,-84,-155)" stroke-linecap="butt">
      <rect fill="none" x="249" width="30" height="30" y="170" clip-path="url(#clipPath2)"/>
      <text x="257.3262" xml:space="preserve" y="189.7139" clip-path="url(#clipPath2)" font-family="sans-serif" stroke="none">09</text>
    </g>
    <g fill="rgb(153,204,255)" text-rendering="geometricPrecision" shape-rendering="geometricPrecision" transform="matrix(1,0,0,1,-84,-155)" stroke="rgb(153,204,255)">
      <rect x="279" width="30" height="30" y="170" clip-path="url(#clipPath2)" stroke="none"/>
    </g>
    <g text-rendering="geometricPrecision" stroke-miterlimit="1.45" shape-rendering="geometricPrecision" transform="matrix(1,0,0,1,-84,-155)" stroke-linecap="butt">
      <rect fill="none" x="279" width="30" height="30" y="170" clip-path="url(#clipPath2)"/>
      <text x="286.6611" xml:space="preserve" y="189.7139" clip-path="url(#clipPath2)" font-family="sans-serif" stroke="none">1E</text>
    </g>
    <g fill="rgb(153,204,255)" text-rendering="geometricPrecision" shape-rendering="geometricPrecision" transform="matrix(1,0,0,1,-84,-155)" stroke="rgb(153,204,255)">
      <rect x="309" width="30" height="30" y="170" clip-path="url(#clipPath2)" stroke="none"/>
    </g>
    <g text-rendering="geometricPrecision" stroke-miterlimit="1.45" shape-rendering="geometricPrecision" transform="matrix(1,0,0,1,-84,-155)" stroke-linecap="butt">
      <rect fill="none" x="309" width="30" height="30" y="170" clip-path="url(#clipPath2)"/>
      <text x="317.3262" xml:space="preserve" y="189.7139" clip-path="url(#clipPath2)" font-family="sans-serif" stroke="none">95</text>
    </g>
    <g fill="rgb(153,204,255)" text-rendering="geometricPrecision" shape-rendering="geometricPrecision" transform="matrix(1,0,0,1,-84,-155)" stroke="rgb(153,204,255)">
      <rect x="339" width="30" height="30" y="170" clip-path="url(#clipPath2)" stroke="none"/>
    </g>
    <g text-rendering="geometricPrecision" stroke-miterlimit="1.45" shape-rendering="geometricPrecision" transform="matrix(1,0,0,1,-84,-155)" stroke-linecap="butt">
      <rect fill="none" x="339" width="30" height="30" y="170" clip-path="url(#clipPath2)"/>
      <text x="346.6611" xml:space="preserve" y="189.7139" clip-path="url(#clipPath2)" font-family="sans-serif" stroke="none">E7</text>
    </g>
    <g fill="rgb(153,204,255)" text-rendering="geometricPrecision" shape-rendering="geometricPrecision" transform="matrix(1,0,0,1,-84,-155)" stroke="rgb(153,204,255)">
      <rect x="369" width="30" height="30" y="170" clip-path="url(#clipPath2)" stroke="none"/>
    </g>
    <g text-rendering="geometricPrecision" stroke-miterlimit="1.45" shape-rendering="geometricPrecision" transform="matrix(1,0,0,1,-84,-155)" stroke-linecap="butt">
      <rect fill="none" x="369" width="30" height="30" y="170" clip-path="url(#clipPath2)"/>
      <text x="376.3301" xml:space="preserve" y="189.7139" clip-path="url(#clipPath2)" font-family="sans-serif" stroke="none">5C</text>
    </g>
  </g>
</svg>
