<?xml version="1.0" encoding="UTF-8"?><svg xmlns="http://www.w3.org/2000/svg" xmlns:xlink="http://www.w3.org/1999/xlink" fill-opacity="1" color-rendering="auto" color-interpolation="auto" text-rendering="auto" stroke="black" stroke-linecap="square" width="411" stroke-miterlimit="10" shape-rendering="auto" stroke-opacity="1" fill="black" stroke-dasharray="none" font-weight="normal" stroke-width="1" height="184" font-family="'Dialog'" font-style="normal" stroke-linejoin="miter" font-size="12px" stroke-dashoffset="0" image-rendering="auto">
  <!--Generated by ySVG 2.5-->
  <defs id="genericDefs"/>
  <g>
    <defs id="defs1">
      <clipPath clipPathUnits="userSpaceOnUse" id="clipPath1">
        <path d="M0 0 L411 0 L411 184 L0 184 L0 0 Z"/>
      </clipPath>
      <clipPath clipPathUnits="userSpaceOnUse" id="clipPath2">
        <path d="M163 78 L574 78 L574 262 L163 262 L163 78 Z"/>
      </clipPath>
    </defs>
    <g fill="white" text-rendering="geometricPrecision" shape-rendering="geometricPrecision" transform="translate(-163,-78)" stroke="white">
      <rect x="163" width="411" height="184" y="78" clip-path="url(#clipPath2)" stroke="none"/>
    </g>
    <g fill="rgb(255,204,0)" text-rendering="geometricPrecision" shape-rendering="geometricPrecision" transform="matrix(1,0,0,1,-163,-78)" stroke="rgb(255,204,0)">
      <rect x="178" width="154" height="30" y="93" clip-path="url(#clipPath2)" stroke="none"/>
    </g>
    <g text-rendering="geometricPrecision" stroke-miterlimit="1.45" shape-rendering="geometricPrecision" transform="matrix(1,0,0,1,-163,-78)" stroke-linecap="butt">
      <rect fill="none" x="178" width="154" height="30" y="93" clip-path="url(#clipPath2)"/>
      <text x="207.6504" xml:space="preserve" y="112.7139" clip-path="url(#clipPath2)" font-family="sans-serif" stroke="none">Public master key</text>
    </g>
    <g fill="rgb(153,204,255)" text-rendering="geometricPrecision" shape-rendering="geometricPrecision" transform="matrix(1,0,0,1,-163,-78)" stroke="rgb(153,204,255)">
      <rect x="405" width="154" height="30" y="93" clip-path="url(#clipPath2)" stroke="none"/>
    </g>
    <g text-rendering="geometricPrecision" stroke-miterlimit="1.45" shape-rendering="geometricPrecision" transform="matrix(1,0,0,1,-163,-78)" stroke-linecap="butt">
      <rect fill="none" x="405" width="154" height="30" y="93" clip-path="url(#clipPath2)"/>
      <text x="433.6514" xml:space="preserve" y="112.7139" clip-path="url(#clipPath2)" font-family="sans-serif" stroke="none">Secret master key</text>
    </g>
    <g fill="rgb(255,204,0)" text-rendering="geometricPrecision" shape-rendering="geometricPrecision" transform="matrix(1,0,0,1,-163,-78)" stroke="rgb(255,204,0)">
      <rect x="178" width="154" height="30" y="153" clip-path="url(#clipPath2)" stroke="none"/>
    </g>
    <g text-rendering="geometricPrecision" stroke-miterlimit="1.45" shape-rendering="geometricPrecision" transform="matrix(1,0,0,1,-163,-78)" stroke-linecap="butt">
      <rect fill="none" x="178" width="154" height="30" y="153" clip-path="url(#clipPath2)"/>
      <text x="211.3096" xml:space="preserve" y="172.7139" clip-path="url(#clipPath2)" font-family="sans-serif" stroke="none">Public sub key 1</text>
    </g>
    <g fill="rgb(153,204,255)" text-rendering="geometricPrecision" shape-rendering="geometricPrecision" transform="matrix(1,0,0,1,-163,-78)" stroke="rgb(153,204,255)">
      <rect x="405" width="154" height="30" y="153" clip-path="url(#clipPath2)" stroke="none"/>
    </g>
    <g text-rendering="geometricPrecision" stroke-miterlimit="1.45" shape-rendering="geometricPrecision" transform="matrix(1,0,0,1,-163,-78)" stroke-linecap="butt">
      <rect fill="none" x="405" width="154" height="30" y="153" clip-path="url(#clipPath2)"/>
      <text x="437.3105" xml:space="preserve" y="172.7139" clip-path="url(#clipPath2)" font-family="sans-serif" stroke="none">Secret sub key 1</text>
    </g>
    <g fill="rgb(255,204,0)" text-rendering="geometricPrecision" shape-rendering="geometricPrecision" transform="matrix(1,0,0,1,-163,-78)" stroke="rgb(255,204,0)">
      <rect x="178" width="154" height="30" y="216.4" clip-path="url(#clipPath2)" stroke="none"/>
    </g>
    <g text-rendering="geometricPrecision" stroke-miterlimit="1.45" shape-rendering="geometricPrecision" transform="matrix(1,0,0,1,-163,-78)" stroke-linecap="butt">
      <rect fill="none" x="178" width="154" height="30" y="216.4" clip-path="url(#clipPath2)"/>
      <text x="211.3096" xml:space="preserve" y="236.1139" clip-path="url(#clipPath2)" font-family="sans-serif" stroke="none">Public sub key 2</text>
    </g>
    <g fill="rgb(153,204,255)" text-rendering="geometricPrecision" shape-rendering="geometricPrecision" transform="matrix(1,0,0,1,-163,-78)" stroke="rgb(153,204,255)">
      <rect x="405" width="154" height="30" y="216.4" clip-path="url(#clipPath2)" stroke="none"/>
    </g>
    <g text-rendering="geometricPrecision" stroke-miterlimit="1.45" shape-rendering="geometricPrecision" transform="matrix(1,0,0,1,-163,-78)" stroke-linecap="butt">
      <rect fill="none" x="405" width="154" height="30" y="216.4" clip-path="url(#clipPath2)"/>
      <text x="437.3105" xml:space="preserve" y="236.1139" clip-path="url(#clipPath2)" font-family="sans-serif" stroke="none">Secret sub key 2</text>
      <path fill="none" d="M405 108 L342 108" stroke-width="3" clip-path="url(#clipPath2)"/>
      <path d="M332 108 L347 114.25 L343.25 108 L347 101.75 Z" stroke-width="3" clip-path="url(#clipPath2)" stroke="none"/>
      <path fill="none" d="M405 108 L361.9467 108 L361.9467 168 L342 168" stroke-width="3" clip-path="url(#clipPath2)"/>
      <path d="M332 168 L347 174.25 L343.25 168 L347 161.75 Z" stroke-width="3" clip-path="url(#clipPath2)" stroke="none"/>
      <path fill="none" d="M453.431 152.9952 L425.25 142.4025 L411.0625 138.6695 L396.875 136.0031 L382.6875 134.4033 L368.5 133.87 L354.3125 134.4033 L340.125 136.0031 L325.9375 138.6695 L311.75 142.4025 L291.9935 149.8286" stroke-width="2" clip-path="url(#clipPath2)" stroke="red"/>
      <path fill="red" d="M283.569 152.9952 L298.1849 153.5106 L293.0465 149.4328 L294.2266 142.98 Z" stroke-width="2" clip-path="url(#clipPath2)" stroke="none"/>
      <path fill="none" d="M405 108 L361.9467 108 L361.9467 231.4 L342 231.4" stroke-width="3" clip-path="url(#clipPath2)"/>
      <path d="M332 231.4 L347 237.65 L343.25 231.4 L347 225.15 Z" stroke-width="3" clip-path="url(#clipPath2)" stroke="none"/>
      <path fill="none" d="M451.8793 216.3965 L425.25 206.7625 L411.0625 203.1695 L396.875 200.6031 L382.6875 199.0633 L368.5 198.55 L354.3125 199.0633 L340.125 200.6031 L325.9375 203.1695 L311.75 206.7625 L293.5839 213.3347" stroke-width="2" clip-path="url(#clipPath2)" stroke="red"/>
      <path fill="red" d="M285.1207 216.3965 L299.7291 217.0933 L294.6418 212.952 L295.9018 206.5143 Z" stroke-width="2" clip-path="url(#clipPath2)" stroke="none"/>
    </g>
  </g>
</svg>
