<?xml version="1.0" encoding="UTF-8"?><svg xmlns="http://www.w3.org/2000/svg" xmlns:xlink="http://www.w3.org/1999/xlink" fill-opacity="1" color-rendering="auto" color-interpolation="auto" text-rendering="auto" stroke="black" stroke-linecap="square" width="244" stroke-miterlimit="10" shape-rendering="auto" stroke-opacity="1" fill="black" stroke-dasharray="none" font-weight="normal" stroke-width="1" height="264" font-family="'Dialog'" font-style="normal" stroke-linejoin="miter" font-size="12px" stroke-dashoffset="0" image-rendering="auto">
  <!--Generated by ySVG 2.5-->
  <defs id="genericDefs"/>
  <g>
    <defs id="defs1">
      <clipPath clipPathUnits="userSpaceOnUse" id="clipPath1">
        <path d="M0 0 L244 0 L244 264 L0 264 L0 0 Z"/>
      </clipPath>
      <clipPath clipPathUnits="userSpaceOnUse" id="clipPath2">
        <path d="M151 50 L395 50 L395 314 L151 314 L151 50 Z"/>
      </clipPath>
    </defs>
    <g fill="white" text-rendering="geometricPrecision" shape-rendering="geometricPrecision" transform="translate(-151,-50)" stroke="white">
      <rect x="151" width="244" height="264" y="50" clip-path="url(#clipPath2)" stroke="none"/>
    </g>
    <g text-rendering="geometricPrecision" stroke-miterlimit="1.45" shape-rendering="geometricPrecision" transform="matrix(1,0,0,1,-151,-50)" stroke-linecap="butt">
      <rect fill="none" x="166.04" width="213.68" height="232.24" y="65.96" clip-path="url(#clipPath2)"/>
    </g>
    <g fill="rgb(255,204,0)" text-rendering="geometricPrecision" shape-rendering="geometricPrecision" transform="matrix(1,0,0,1,-151,-50)" stroke="rgb(255,204,0)">
      <rect x="198.88" width="148" height="39" y="117.36" clip-path="url(#clipPath2)" stroke="none"/>
    </g>
    <g text-rendering="geometricPrecision" stroke-miterlimit="1.45" shape-rendering="geometricPrecision" transform="matrix(1,0,0,1,-151,-50)" stroke-linecap="butt">
      <rect fill="none" x="198.88" width="148" height="39" y="117.36" clip-path="url(#clipPath2)"/>
      <text x="227.6105" xml:space="preserve" y="141.5739" clip-path="url(#clipPath2)" font-family="sans-serif" stroke="none">Master Key "MK"</text>
    </g>
    <g fill="rgb(255,204,153)" text-rendering="geometricPrecision" shape-rendering="geometricPrecision" transform="matrix(1,0,0,1,-151,-50)" stroke="rgb(255,204,153)">
      <rect x="198.88" width="148" height="39" y="156.36" clip-path="url(#clipPath2)" stroke="none"/>
    </g>
    <g text-rendering="geometricPrecision" stroke-miterlimit="1.45" shape-rendering="geometricPrecision" transform="matrix(1,0,0,1,-151,-50)" stroke-linecap="butt">
      <rect fill="none" x="198.88" width="148" height="39" y="156.36" clip-path="url(#clipPath2)"/>
      <text x="240.5392" xml:space="preserve" y="180.5739" clip-path="url(#clipPath2)" font-family="sans-serif" stroke="none">First subkey</text>
    </g>
    <g fill="rgb(255,204,153)" text-rendering="geometricPrecision" shape-rendering="geometricPrecision" transform="matrix(1,0,0,1,-151,-50)" stroke="rgb(255,204,153)">
      <rect x="198.88" width="148" height="39" y="195.36" clip-path="url(#clipPath2)" stroke="none"/>
    </g>
    <g text-rendering="geometricPrecision" stroke-miterlimit="1.45" shape-rendering="geometricPrecision" transform="matrix(1,0,0,1,-151,-50)" stroke-linecap="butt">
      <rect fill="none" x="198.88" width="148" height="39" y="195.36" clip-path="url(#clipPath2)"/>
      <text x="231.8527" xml:space="preserve" y="219.5739" clip-path="url(#clipPath2)" font-family="sans-serif" stroke="none">Second subkey</text>
      <text x="234.5187" y="91.4339" clip-path="url(#clipPath2)" font-family="sans-serif" stroke="none" font-weight="bold" xml:space="preserve">Keyring "KR"</text>
    </g>
    <g fill="rgb(204,153,255)" text-rendering="geometricPrecision" shape-rendering="geometricPrecision" transform="matrix(1,0,0,1,-151,-50)" stroke="rgb(204,153,255)">
      <rect x="198.88" width="148" height="39" y="234.36" clip-path="url(#clipPath2)" stroke="none"/>
    </g>
    <g text-rendering="geometricPrecision" stroke-miterlimit="1.45" shape-rendering="geometricPrecision" transform="matrix(1,0,0,1,-151,-50)" stroke-linecap="butt">
      <rect fill="none" x="198.88" width="148" height="39" y="234.36" clip-path="url(#clipPath2)"/>
      <text x="222.2667" xml:space="preserve" y="258.5739" clip-path="url(#clipPath2)" font-family="sans-serif" stroke="none">New subkey "SBK"</text>
    </g>
  </g>
</svg>
